<svg xmlns="http://www.w3.org/2000/svg" viewBox="0 0 24 24" width="32" height="32">
  <!-- Green background -->
  <circle cx="12" cy="12" r="12" fill="rgb(45, 189, 45)" />

  <!-- Three black arcs -->
  <path d="M17.59 16.42a.75.75 0 0 1-1.03.28c-2.8-1.67-6.33-2.05-10.47-1.12a.75.75 0 0 1-.33-1.46c4.54-1.03 8.47-.6 11.64 1.3a.75.75 0 0 1 .29.99z" fill="black"/>
  <path d="M18.89 13.25a.9.9 0 0 1-1.22.37c-3.23-1.84-8.15-2.38-11.97-1.3a.9.9 0 0 1-.5-1.72c4.35-1.25 9.82-.67 13.52 1.52a.9.9 0 0 1 .37 1.13z" fill="black"/>
  <path d="M19.9 9.93a1.1 1.1 0 0 1-1.49.44c-3.67-2.1-9.25-2.29-13.07-1.25a1.1 1.1 0 1 1-.59-2.13c4.35-1.21 10.61-1 14.84 1.43a1.1 1.1 0 0 1 .31 1.51z" fill="black"/>
</svg>

